<?xml version="1.0" encoding="UTF-8"?>
<svg version="1.1" viewBox="0 0 2000 2000" width="1280" height="1280" xmlns="http://www.w3.org/2000/svg">
<path transform="translate(0)" d="m0 0h2e3v2e3h-2e3z" fill="#8FB13F"/>
<path transform="translate(952,812)" d="m0 0h42l18 3 22 5 24 8 21 9 16 9 14 10 11 9 12 11 16 16 13 17 12 19 11 22 9 27 4 17 3 17 1 14v33l-2 15-5 24-8 24-8 18-7 14-7 11-9 12-13 16-17 17-14 11-10 7-16 10-23 11-29 10-26 5-8 1h-50l-30-5-21-6-22-9-15-8-16-10-11-8-14-12-10-10-7-8-12-15-10-15-9-16-6-12-6-15-6-19-4-20-2-20v-37l2-18 5-23 7-21 9-20 12-21 11-16 10-11 7-8 7-7 8-7 13-11 15-10 14-8 21-10 17-6 13-4 18-4z" fill="#018E4B"/>
<path transform="translate(1049,655)" d="m0 0 6 1 8 4 14 10 14 12 9 10 9 12 8 14 5 12 6 19 3 13v18l9-5 21-12 15-7 22-8 14-4 19-4 15-2h27l22 3 21 5 26 10 16 8 14 8 12 8 6 5-2 4-5 3-27 9-28 7-16 3-28 5-44 6-40 4-32 2-32 1-29-1-9-2-6-2 2 7h-4l-10-9-5-6 1-9 7-10 4-3-1-6-9-22-7-20-9-27-6-21-5-21-2-11v-9z" fill="#008E4B"/>
<path transform="translate(918,862)" d="m0 0h5l2 2-1 4-5 4h-7l-7 9-12 4-5 7-1 6 3 6 5 3 20 2 4 4 4 11 4 1 1-1 1-10 8-8-1-4-3-4 2-14 4-1 14 2 6 4 4 6 1 1 7-1 3-3h5l5 8 1 3 7 1h7l5 4 2 5v7l-4 4-14 5h-13l-4 2 4 1 1 5v7l9 1 1 4-9 2-2 4-5-1 3-5-13 4-8 7-8 9-4 5-2 1-3 11-6 8-9 7-1 2 1 10 2 12-4 1-4-5-4-10-10-2h-6l-5 3-13 1-7 4-5 11-1 9 4 8 5 4 5 2 6-1 6-9 1-1h7l1 3-4 7-1 6 1 3 12 1 4 4v14l2 4 12 2v4l-8 1-13-7-4-5-3-6-5-2-10-3-4-5-6-1-7-1-16-8-5-5-5-12-7-9-7-10-3-6h-1l2 6 8 16v3l-4-2-7-11-6-15-1-4-6-5-3-9-2-7v-12l3-9v-9l-5-13v-6l7-12 9-11 12-14 7-7 9-7 14-3 7-3 10-2 2-1h13l6-7 2-1h7l7 3 5-3z" fill="#F6F5F6"/>
<path transform="translate(927,1085)" d="m0 0h4l1 2v10h3l2-5 1-1 7 1 9 2 12 2 12 8 6 5 13 2 6 4 5 11 18 6 18 7 10 4 2 2v6l-6 9-5 5-2 10-11 19-7 2-9 2-4 2-5 9-5 4-5 5-9 6-9 7-6-1-6 5-14 6-13-1-2-1-1-4v-12l2-7 2-13 1-4v-13l-2-4-14-9-6-5-8-14-4-5-4-3 1-10-1-4 2-6 7-8 1-4-1-8 5-8 5-6 4-1z" fill="#D1D7D0"/>
<path transform="translate(1387,782)" d="m0 0 4 2v4l-9 8-6 10-14 14-11 9-13 10-17 11-17 9-17 7-17 5-13 3-20 3h-28l-30-4-18-5-24-8-18-8-23-14-9-8h3 3l-1-6 15 3 33 1 28-1 42-3 46-5 40-6 24-5 16-3 20-5 27-9 6-4z" fill="#4BB052"/>
<path transform="translate(1146,970)" d="m0 0h7l5 3 7 10 7 6 6 5 2 10 1 14v41l-2 17-5 21-7 20-9 20-2-1 2-11 6-16 2-5-1-10-4-9v-5l2-7-3-4h-10l-8 2-13 1-4-2-6-7-6-5-7-10-1-3v-8l2-4-1-7-3-9 3-7 9-13 7-11 4-9 5-6 10 1z" fill="#D1D7D0"/>
<path transform="translate(927,1085)" d="m0 0h4l1 2v10h3l2-5 1-1 7 1 9 2 12 2 12 8 6 5 13 2 6 4 5 11 18 6 3 3 5 2-3 1-8-1-2-1-6 1-8-1-8 2-5 6-7 4-8 2-14 6h-2v2l-9 3-2 4-5 1 1 10-2 7-2 2v-2l-6-2-12-8-6-5-8-14-4-5-4-3 1-10-1-4 2-6 7-8 1-4-1-8 5-8 5-6 4-1z" fill="#F6F5F6"/>
<path transform="translate(955,1388)" d="m0 0h33l8 5 5 6 1 3v11l-4 8-1 4 7 10 5 5-1-5v-47h37l10 6 6 7 3 9v12l-4 10-6 7-10 5h-59l-3-3-5-10-3-2 1 6v8l-1 1h-19l-1-1v-54z" fill="#F5F5F5"/>
<path transform="translate(1047,653)" d="m0 0 7 1 10 5 4 4-5-2-8-4-6-2v11l5 24 6 23 12 36 8 22 8 19-1 5-5 4-5 8-1 9v3l-3-3v-2l-4-2-6-7-10-15-8-14-8-19-5-21-1-7v-19l5-26 5-16 5-14z" fill="#4BB052"/>
<path transform="translate(1049,1308)" d="m0 0h22l3 3 9 16 1 3h2l-1-3-1-18 1-1h19l2 3v52l-2 1h-21l-5-8-8-13h-1l1 11v9l-2 1h-19l-1-2v-48z" fill="#F4F4F4"/>
<path transform="translate(798,1307)" d="m0 0h13l9 3 8 6 6 8 2 5v15l-6 10-8 7-6 3-5 1h-13l-10-4-8-7-5-8-1-4v-14l5-9 9-8z" fill="#F6F5F6"/>
<path transform="translate(930,1307)" d="m0 0h11l9 3 10 7 5 9 1 5v12l-5 10-7 7-8 4-6 1h-12l-11-4-7-7-6-12v-13l5-10 8-7 8-4z" fill="#F5F5F5"/>
<path transform="translate(1196,1307)" d="m0 0h11l11 4 8 7 4 6 2 6v13l-4 8-5 6-9 6-8 2h-10l-9-2-8-6-6-7-3-8v-12l4-9 7-8 9-5z" fill="#F6F5F6"/>
<path transform="translate(1112,1308)" d="m0 0h18l3 2v17h12v-19h19l2 1v54l-1 1h-19l-1-1v-18l-12 1v17l-1 1h-19l-1-1-1-10v-44z" fill="#F4F4F4"/>
<path transform="translate(1069,1388)" d="m0 0h42l1 1v15l-1 1-22-1v3h21l1 1v15l-1 1-20 1-1 2h24l1 16-2 1h-43l-1-1v-54z" fill="#F4F4F4"/>
<path transform="translate(907,1388)" d="m0 0h40l1 1 1 12-1 3h-22v3h16l5 1 1 2v13l-3 2h-18l-1 2h22l2 1 1 13-2 3h-43l-1-1v-27l1-27z" fill="#F4F4F4"/>
<path transform="translate(846,1388)" d="m0 0h20l3 1 3 13 1 12 1 2 6-27 1-1h22l1 3-6 21-8 29-3 3h-24l-4-4-11-41z" fill="#F5F4F5"/>
<path transform="translate(972,1308)" d="m0 0h43l1 1v17l-2 3h-2v2h-2l-2 4-8 8-2 4 7-1h9l3 3v14l-1 1h-45l-1-1v-16l3-5 13-13 2-4-6 1h-10l-1-2v-15z" fill="#F5F4F5"/>
<path transform="translate(991,835)" d="m0 0 21 1 21 5 30 10 2 1v3l-14 8-6 2-1 17-2 3-6-1-2-4-9 1-9-2-8-7-4-6-6-6 1-7 2-4h2l-3-3-9-7-1-3z" fill="#F4F4F4"/>
<path transform="translate(747,1307)" d="m0 0h7l13 4 5 4-1 5-4 7-7-1-8-2 4 4 12 6 4 6 1 10-4 7-7 6-7 2h-10l-11-3-6-4-1-1 1-7 4-6 6 1 8 3h2v-2l-13-7-6-7-1-7 3-9 7-6z" fill="#F5F4F5"/>
<path transform="translate(876,1307)" d="m0 0h8l13 4 5 4-1 5-6 10-6-1-2-1h-8l-4 4v8l4 4 6 1 6-3 4 1 7 11-1 5-11 5-5 1h-11l-8-3-10-9-5-10v-14l5-9 5-6 10-6z" fill="#F5F4F5"/>
<path transform="translate(1023,1308)" d="m0 0h18l1 1 1 54-1 1h-19l-1-1-1-20v-21l1-13z" fill="#F4F4F4"/>
<path transform="translate(1142,921)" d="m0 0 5 1 11 18 8 17 3 7-1 4-9-11-5-6-7 2-4 5-4 8-5 2h-6l-6-4-2-4v-17l3-1 7 3h5l-1-7-6-9 9-4z" fill="#D2D7D1"/>
<path transform="translate(921,848)" d="m0 0h6l4 3 7-1 2-1h6l3 2 15 4 4 6 15 4-1 5-2 2-5-1-3-2h-5v3l5 1 4 3v4l-8 3-7-1-12-6h-14v-4l5-1 6 1 5-6-1-4-12-5h-7l-10 3h-4v-2l-6 2-5-2-1-3 5-5h5l3 4z" fill="#F1F2F1"/>
<path transform="translate(1187,958)" d="m0 0 2 2 6 19 4 17 2 10 2 23v27l-2 18-8 32-8 21-3 4 1-5 8-22 6-25 2-10 1-11v-33l-2-21-4-19-6-21z" fill="#4BB052"/>
<path transform="translate(815,1285)" d="m0 0h6l1 4-6 9-4 4-2 1h-9l-1-2 4-11 4-4z" fill="#F2F2F2"/>
<path transform="translate(1121,991)" d="m0 0h2l1 4-1 2h-2l1 3-7 9v3h-2l-1 10-1 4-4-2-3-2-1-5 3-7 9-13 5-5z" fill="#F2F2F2"/>
<path transform="translate(1199,1327)" d="m0 0 6 1 4 5v7l-5 5-4 1-6-4-2-4 1-7 3-3z" fill="#90B23F"/>
<path transform="translate(803,1327)" d="m0 0 6 1 4 5v7l-5 5-4 1-4-2-4-7 1-5 3-4z" fill="#90B23F"/>
<path transform="translate(1030,1405)" d="m0 0 7 1 4 5 1 8-3 6-3 2h-6l-1-2v-19z" fill="#90B23F"/>
<path transform="translate(932,1327)" d="m0 0 7 1 4 4v8l-5 5h-6l-5-5v-8z" fill="#8FB13F"/>
<path transform="translate(1109,1038)" d="m0 0 3 3 1 5h2l4 8 4 4v3l4 1 4 6v2l-5-1-11-9-7-9-1-7z" fill="#F2F2F2"/>
<path transform="translate(1168,1096)" d="m0 0h4v7l-6 16-8 18-2-1 2-11 6-16 3-1z" fill="#EAECEA"/>
<path transform="translate(1117,899)" d="m0 0 5 3 10 14 2 3v4l-7 1-3-2v-7l-3-6-4-5z" fill="#ECEDEC"/>
<path transform="translate(910,1034)" d="m0 0h7l14 5 6 4 1 3h-6l-4-2-1-2-15-5-3 2-2-1v-2z" fill="#E0E4E0"/>
<path transform="translate(910,850)" d="m0 0h5l4 7h9l-2 2-9 1v-2l-6 2-5-2-1-3z" fill="#E8EAE7"/>
<path transform="translate(819,1009)" d="m0 0h1l2 6 8 16v3l-4-2-7-11-3-10 3 1z" fill="#E6E8E6"/>
<path transform="translate(946,1046)" d="m0 0h9l5 3v2l-11 3-4-4-3-2z" fill="#EDEEED"/>
<path transform="translate(1046,1142)" d="m0 0h6l4 3v6l-4 4-2-3-1-8-3-1z" fill="#F1F1F1"/>
<path transform="translate(1090,1424)" d="m0 0h19l2 1v2l-20 1-2-1z" fill="#7BB043"/>
<path transform="translate(935,1041)" d="m0 0 5 2 1 1 13 1v1l-10 2 3 5-15-6v-1h6z" fill="#4BB052"/>
<path transform="translate(1114,907)" d="m0 0 5 3v5l-1 1h-5l-3-4 2-4z" fill="#ECEDEB"/>
<path transform="translate(995,842)" d="m0 0 8 5v2h-2l-2 6-1-3-4-1z" fill="#52B258"/>
<path transform="translate(969,929)" d="m0 0 3 1-2 3h-2v2l-9 4-3-1 7-6z" fill="#BFD1BF"/>
<path transform="translate(1121,942)" d="m0 0 9 3 1 4h-8l-2-2z" fill="#EEEFEE"/>
<path transform="translate(1028,1134)" d="m0 0 11 3 10 4v1h-7l-8-3v-2l-6-2z" fill="#E1E4E0"/>
<path transform="translate(938,871)" d="m0 0 7 1 3 3-4 1h-9v-4z" fill="#EDEEED"/>
<path transform="translate(1089,1404)" d="m0 0h13l8 1v1h-15v2l-6-1z" fill="#66B04A"/>
<path transform="translate(927,1040)" d="m0 0 8 1 3 3v2h-6l-4-2z" fill="#E7E9E6"/>
<path transform="translate(1128,968)" d="m0 0h6l-1 2 7 1 5-2h8v1l-9 2-9 1-4-1-2 1z" fill="#4BB052"/>
<path transform="translate(970,948)" d="m0 0 13 1-3 2h-3l-2 4-5-1 3-5z" fill="#D8DDD7"/>
<path transform="translate(975,1403)" d="m0 0 5 1v6l-4 1-1-1z" fill="#90B23F"/>
<path transform="translate(946,1046)" d="m0 0h9v1h-7l1 6-3-1-1-2-3-2z" fill="#D1D7D0"/>
</svg>
